REM DIRINDEX 1\2,1\3
REM DIRNAME folder01,folder02,folder03
TITLE ""
FILE "ScrambleS_3Part2_Theme159.mp3" MP3
  TRACK 01 AUDIO
    TITLE "3:cjc080_0837"
    INDEX 01 00:00:00
  TRACK 02 AUDIO
    TITLE "0:"
    INDEX 01 00:02:28
  TRACK 03 AUDIO
    TITLE "2:cjc080_0838"
    INDEX 01 00:03:37
  TRACK 04 AUDIO
    TITLE "0:"
    INDEX 01 00:06:73
  TRACK 05 AUDIO
    TITLE "2:cjc080_0839"
    INDEX 01 00:08:11
  TRACK 06 AUDIO
    TITLE "0:"
    INDEX 01 00:09:73
